<svg xmlns="http://www.w3.org/2000/svg" xmlns:xlink="http://www.w3.org/1999/xlink" width="500" zoomAndPan="magnify" viewBox="0 0 375 374.999991" height="500" preserveAspectRatio="xMidYMid meet" version="1.0"><defs><g/></defs><g fill="#025492" fill-opacity="1"><g transform="translate(163.898952, 273.315833)"><g><path d="M 98.179688 1.355469 L 100.382812 1.355469 L 100.382812 -97.160156 C 100.382812 -111.066406 101.90625 -114.964844 107.164062 -116.492188 L 107.164062 -118.695312 L 85.800781 -118.695312 L 85.800781 -116.492188 C 93.429688 -114.457031 97.5 -109.707031 97.5 -90.378906 L 97.5 -22.722656 L 23.398438 -118.695312 L 6.78125 -118.695312 L 6.78125 -116.492188 C 13.566406 -114.964844 15.601562 -111.066406 15.601562 -97.160156 L 15.601562 -21.535156 C 15.601562 -7.628906 13.902344 -3.730469 8.816406 -2.203125 L 8.816406 0 L 30.011719 0 L 30.011719 -2.203125 C 22.382812 -4.238281 18.3125 -8.988281 18.3125 -28.316406 L 18.3125 -102.585938 Z M 98.179688 1.355469 "/></g></g></g><g fill="#025492" fill-opacity="1"><g transform="translate(68.24446, 242.140822)"><g><path d="M 10.054688 0 L 41.996094 0 L 41.996094 -2.5625 C 35.882812 -4.335938 34.109375 -8.871094 34.109375 -25.039062 L 34.109375 -54.613281 L 48.105469 -54.613281 C 84.777344 -54.613281 103.902344 -72.949219 103.902344 -99.171875 C 103.902344 -118.296875 90.890625 -138.011719 50.078125 -138.011719 L 10.054688 -138.011719 L 10.054688 -135.449219 C 15.96875 -133.671875 17.941406 -129.140625 17.941406 -112.972656 L 17.941406 -25.039062 C 17.941406 -8.871094 15.96875 -4.335938 10.054688 -2.5625 Z M 34.109375 -57.570312 L 34.109375 -134.660156 C 36.472656 -134.855469 39.628906 -135.054688 42.390625 -135.054688 C 74.132812 -135.054688 86.550781 -115.730469 86.550781 -94.636719 C 86.550781 -71.371094 72.949219 -57.570312 47.710938 -57.570312 Z M 34.109375 -57.570312 "/></g></g></g><path fill="#f4f4f4" d="M 75.492188 199.558594 L 291.144531 199.558594 L 291.144531 227.511719 L 75.492188 227.511719 L 75.492188 199.558594 " fill-opacity="1" fill-rule="nonzero"/><g fill="#025492" fill-opacity="1"><g transform="translate(84.763031, 218.410385)"><g><path d="M 0.980469 0 L 4.101562 0 L 4.101562 -0.25 C 3.503906 -0.421875 3.332031 -0.867188 3.332031 -2.445312 L 3.332031 -5.332031 L 4.699219 -5.332031 C 8.277344 -5.332031 10.144531 -7.125 10.144531 -9.683594 C 10.144531 -11.550781 8.875 -13.476562 4.890625 -13.476562 L 0.980469 -13.476562 L 0.980469 -13.226562 C 1.558594 -13.054688 1.753906 -12.609375 1.753906 -11.03125 L 1.753906 -2.445312 C 1.753906 -0.867188 1.558594 -0.421875 0.980469 -0.25 Z M 3.332031 -5.621094 L 3.332031 -13.148438 C 3.5625 -13.167969 3.871094 -13.1875 4.140625 -13.1875 C 7.238281 -13.1875 8.453125 -11.300781 8.453125 -9.242188 C 8.453125 -6.96875 7.125 -5.621094 4.660156 -5.621094 Z M 3.332031 -5.621094 "/></g></g></g><g fill="#025492" fill-opacity="1"><g transform="translate(98.408041, 218.410385)"><g><path d="M 10.78125 0.136719 C 11.167969 0.136719 11.667969 0.0976562 11.957031 0 L 11.957031 -0.230469 C 11.859375 -0.210938 11.761719 -0.210938 11.648438 -0.210938 C 10.992188 -0.210938 10.609375 -0.847656 9.683594 -3.15625 C 8.761719 -5.527344 8.394531 -6.699219 6.027344 -7.007812 C 8.527344 -7.296875 9.839844 -8.664062 9.839844 -10.472656 C 9.839844 -12.1875 8.683594 -13.476562 4.773438 -13.476562 L 0.980469 -13.476562 L 0.980469 -13.226562 C 1.578125 -13.054688 1.753906 -12.609375 1.753906 -11.03125 L 1.753906 -2.445312 C 1.753906 -0.867188 1.578125 -0.421875 0.980469 -0.25 L 0.980469 0 L 4.101562 0 L 4.101562 -0.25 C 3.503906 -0.421875 3.332031 -0.867188 3.332031 -2.445312 L 3.332031 -6.949219 L 4.5625 -6.949219 C 6.875 -6.949219 7.027344 -5.601562 8.144531 -2.945312 C 8.992188 -0.945312 9.300781 0.136719 10.78125 0.136719 Z M 3.332031 -7.238281 L 3.332031 -13.148438 C 3.640625 -13.167969 3.945312 -13.1875 4.234375 -13.1875 C 7.085938 -13.1875 8.203125 -11.742188 8.203125 -10.03125 C 8.203125 -8.394531 7.160156 -7.238281 4.949219 -7.238281 Z M 3.332031 -7.238281 "/></g></g></g><g fill="#025492" fill-opacity="1"><g transform="translate(113.207588, 218.410385)"><g><path d="M 7.855469 0.191406 C 11.089844 0.191406 14.671875 -1.925781 14.671875 -6.679688 C 14.671875 -11.398438 11.109375 -13.628906 7.855469 -13.628906 C 3.773438 -13.628906 1 -10.703125 1 -6.757812 C 1 -1.984375 4.582031 0.191406 7.855469 0.191406 Z M 2.542969 -7.875 C 2.425781 -11.011719 4.140625 -13.1875 7.066406 -13.1875 C 10.511719 -13.1875 13.035156 -9.433594 13.167969 -5.410156 C 13.265625 -2.523438 11.742188 -0.289062 8.664062 -0.289062 C 5.21875 -0.289062 2.675781 -4.003906 2.542969 -7.875 Z M 2.542969 -7.875 "/></g></g></g><g fill="#025492" fill-opacity="1"><g transform="translate(131.874803, 218.410385)"><g><path d="M 3.832031 0 L 6.96875 0 L 6.96875 -0.25 C 6.371094 -0.421875 6.199219 -0.867188 6.199219 -2.445312 L 6.199219 -13.167969 L 7.105469 -13.167969 C 8.835938 -13.167969 9.585938 -12.707031 10.242188 -11.320312 L 10.453125 -11.359375 L 10.339844 -13.476562 L 0.421875 -13.476562 L 0.308594 -11.359375 L 0.519531 -11.320312 C 1.175781 -12.707031 1.925781 -13.167969 3.65625 -13.167969 L 4.601562 -13.167969 L 4.601562 -2.445312 C 4.601562 -0.867188 4.429688 -0.421875 3.832031 -0.25 Z M 3.832031 0 "/></g></g></g><g fill="#025492" fill-opacity="1"><g transform="translate(145.673759, 218.410385)"><g><path d="M 7.855469 0.191406 C 11.089844 0.191406 14.671875 -1.925781 14.671875 -6.679688 C 14.671875 -11.398438 11.109375 -13.628906 7.855469 -13.628906 C 3.773438 -13.628906 1 -10.703125 1 -6.757812 C 1 -1.984375 4.582031 0.191406 7.855469 0.191406 Z M 2.542969 -7.875 C 2.425781 -11.011719 4.140625 -13.1875 7.066406 -13.1875 C 10.511719 -13.1875 13.035156 -9.433594 13.167969 -5.410156 C 13.265625 -2.523438 11.742188 -0.289062 8.664062 -0.289062 C 5.21875 -0.289062 2.675781 -4.003906 2.542969 -7.875 Z M 2.542969 -7.875 "/></g></g></g><g fill="#025492" fill-opacity="1"><g transform="translate(164.340971, 218.410385)"><g><path d="M 3.832031 0 L 6.96875 0 L 6.96875 -0.25 C 6.371094 -0.421875 6.199219 -0.867188 6.199219 -2.445312 L 6.199219 -13.167969 L 7.105469 -13.167969 C 8.835938 -13.167969 9.585938 -12.707031 10.242188 -11.320312 L 10.453125 -11.359375 L 10.339844 -13.476562 L 0.421875 -13.476562 L 0.308594 -11.359375 L 0.519531 -11.320312 C 1.175781 -12.707031 1.925781 -13.167969 3.65625 -13.167969 L 4.601562 -13.167969 L 4.601562 -2.445312 C 4.601562 -0.867188 4.429688 -0.421875 3.832031 -0.25 Z M 3.832031 0 "/></g></g></g><g fill="#025492" fill-opacity="1"><g transform="translate(178.139924, 218.410385)"><g><path d="M 3.640625 0 L 6.777344 0 L 6.777344 -0.25 C 6.179688 -0.421875 6.007812 -0.867188 6.007812 -2.445312 L 6.007812 -6.101562 L 8.953125 -11.339844 C 9.722656 -12.707031 10.320312 -13.054688 10.839844 -13.226562 L 10.839844 -13.476562 L 8.546875 -13.476562 L 8.546875 -13.226562 C 9.28125 -13.089844 9.261719 -12.515625 8.605469 -11.339844 L 5.910156 -6.566406 L 3.234375 -11.339844 C 2.464844 -12.707031 2.234375 -13.054688 2.8125 -13.226562 L 2.8125 -13.476562 L -0.230469 -13.476562 L -0.230469 -13.226562 C 0.171875 -13.054688 0.730469 -12.707031 1.484375 -11.339844 L 4.390625 -6.066406 L 4.390625 -2.445312 C 4.410156 -0.867188 4.214844 -0.421875 3.640625 -0.25 Z M 3.640625 0 "/></g></g></g><g fill="#025492" fill-opacity="1"><g transform="translate(191.746445, 218.410385)"><g><path d="M 0.980469 0 L 4.101562 0 L 4.101562 -0.25 C 3.503906 -0.421875 3.332031 -0.867188 3.332031 -2.445312 L 3.332031 -5.332031 L 4.699219 -5.332031 C 8.277344 -5.332031 10.144531 -7.125 10.144531 -9.683594 C 10.144531 -11.550781 8.875 -13.476562 4.890625 -13.476562 L 0.980469 -13.476562 L 0.980469 -13.226562 C 1.558594 -13.054688 1.753906 -12.609375 1.753906 -11.03125 L 1.753906 -2.445312 C 1.753906 -0.867188 1.558594 -0.421875 0.980469 -0.25 Z M 3.332031 -5.621094 L 3.332031 -13.148438 C 3.5625 -13.167969 3.871094 -13.1875 4.140625 -13.1875 C 7.238281 -13.1875 8.453125 -11.300781 8.453125 -9.242188 C 8.453125 -6.96875 7.125 -5.621094 4.660156 -5.621094 Z M 3.332031 -5.621094 "/></g></g></g><g fill="#025492" fill-opacity="1"><g transform="translate(205.391452, 218.410385)"><g><path d="M 0.980469 0 L 10.472656 0 L 10.628906 -2.5625 L 10.414062 -2.597656 C 9.722656 -0.808594 8.546875 -0.289062 6.699219 -0.289062 L 4.195312 -0.289062 C 3.640625 -0.289062 3.332031 -0.597656 3.332031 -1.15625 L 3.332031 -7.066406 L 5.796875 -7.066406 C 7.988281 -7.066406 8.546875 -6.621094 8.777344 -5.757812 L 9.011719 -5.757812 L 9.011719 -8.664062 L 8.777344 -8.664062 C 8.546875 -7.796875 7.988281 -7.355469 5.796875 -7.355469 L 3.332031 -7.355469 L 3.332031 -13.1875 L 6.160156 -13.1875 C 8.125 -13.1875 9.261719 -12.609375 9.933594 -10.917969 L 10.144531 -10.972656 L 9.933594 -13.476562 L 0.980469 -13.476562 L 0.980469 -13.226562 C 1.558594 -13.054688 1.753906 -12.609375 1.753906 -11.03125 L 1.753906 -2.445312 C 1.753906 -0.867188 1.558594 -0.421875 0.980469 -0.25 Z M 0.980469 0 "/></g></g></g><g fill="#025492" fill-opacity="1"><g transform="translate(219.748419, 218.410385)"><g><path d="M 2.15625 0.136719 C 2.695312 0.136719 3.136719 -0.347656 3.136719 -0.90625 C 3.136719 -1.464844 2.695312 -1.925781 2.15625 -1.925781 C 1.617188 -1.925781 1.15625 -1.464844 1.15625 -0.90625 C 1.15625 -0.347656 1.617188 0.136719 2.15625 0.136719 Z M 2.15625 0.136719 "/></g></g></g><g fill="#025492" fill-opacity="1"><g transform="translate(227.062761, 218.410385)"><g><path d="M 11.148438 0.152344 L 11.398438 0.152344 L 11.398438 -11.03125 C 11.398438 -12.609375 11.570312 -13.054688 12.167969 -13.226562 L 12.167969 -13.476562 L 9.742188 -13.476562 L 9.742188 -13.226562 C 10.609375 -12.996094 11.070312 -12.457031 11.070312 -10.261719 L 11.070312 -2.578125 L 2.65625 -13.476562 L 0.769531 -13.476562 L 0.769531 -13.226562 C 1.539062 -13.054688 1.769531 -12.609375 1.769531 -11.03125 L 1.769531 -2.445312 C 1.769531 -0.867188 1.578125 -0.421875 1 -0.25 L 1 0 L 3.40625 0 L 3.40625 -0.25 C 2.542969 -0.480469 2.078125 -1.019531 2.078125 -3.214844 L 2.078125 -11.648438 Z M 11.148438 0.152344 "/></g></g></g><g fill="#025492" fill-opacity="1"><g transform="translate(243.016831, 218.410385)"><g><path d="M 0.980469 0 L 10.472656 0 L 10.628906 -2.5625 L 10.414062 -2.597656 C 9.722656 -0.808594 8.546875 -0.289062 6.699219 -0.289062 L 4.195312 -0.289062 C 3.640625 -0.289062 3.332031 -0.597656 3.332031 -1.15625 L 3.332031 -7.066406 L 5.796875 -7.066406 C 7.988281 -7.066406 8.546875 -6.621094 8.777344 -5.757812 L 9.011719 -5.757812 L 9.011719 -8.664062 L 8.777344 -8.664062 C 8.546875 -7.796875 7.988281 -7.355469 5.796875 -7.355469 L 3.332031 -7.355469 L 3.332031 -13.1875 L 6.160156 -13.1875 C 8.125 -13.1875 9.261719 -12.609375 9.933594 -10.917969 L 10.144531 -10.972656 L 9.933594 -13.476562 L 0.980469 -13.476562 L 0.980469 -13.226562 C 1.558594 -13.054688 1.753906 -12.609375 1.753906 -11.03125 L 1.753906 -2.445312 C 1.753906 -0.867188 1.558594 -0.421875 0.980469 -0.25 Z M 0.980469 0 "/></g></g></g><g fill="#025492" fill-opacity="1"><g transform="translate(257.373799, 218.410385)"><g><path d="M 8.164062 0 L 11.148438 0 L 11.148438 -0.25 C 10.722656 -0.421875 10.28125 -0.75 9.472656 -2.097656 L 6.199219 -7.527344 L 8.777344 -11.4375 C 9.644531 -12.746094 10.125 -13.054688 10.664062 -13.226562 L 10.664062 -13.476562 L 8.453125 -13.476562 L 8.453125 -13.226562 C 9.222656 -13.089844 9.164062 -12.570312 8.414062 -11.4375 L 6.007812 -7.816406 L 3.871094 -11.378906 C 3.042969 -12.726562 2.773438 -13.054688 3.371094 -13.226562 L 3.371094 -13.476562 L 0.386719 -13.476562 L 0.386719 -13.226562 C 0.808594 -13.054688 1.25 -12.726562 2.058594 -11.378906 L 4.890625 -6.699219 L 1.789062 -2.039062 C 0.925781 -0.730469 0.441406 -0.421875 -0.078125 -0.25 L -0.078125 0 L 2.117188 0 L 2.117188 -0.25 C 1.347656 -0.386719 1.40625 -0.90625 2.15625 -2.039062 L 5.0625 -6.410156 L 7.683594 -2.097656 C 8.492188 -0.75 8.761719 -0.421875 8.164062 -0.25 Z M 8.164062 0 "/></g></g></g><g fill="#025492" fill-opacity="1"><g transform="translate(271.422897, 218.410385)"><g><path d="M 3.832031 0 L 6.96875 0 L 6.96875 -0.25 C 6.371094 -0.421875 6.199219 -0.867188 6.199219 -2.445312 L 6.199219 -13.167969 L 7.105469 -13.167969 C 8.835938 -13.167969 9.585938 -12.707031 10.242188 -11.320312 L 10.453125 -11.359375 L 10.339844 -13.476562 L 0.421875 -13.476562 L 0.308594 -11.359375 L 0.519531 -11.320312 C 1.175781 -12.707031 1.925781 -13.167969 3.65625 -13.167969 L 4.601562 -13.167969 L 4.601562 -2.445312 C 4.601562 -0.867188 4.429688 -0.421875 3.832031 -0.25 Z M 3.832031 0 "/></g></g></g></svg>